<svg xmlns="http://www.w3.org/2000/svg"  viewBox="0 0 50 50" width="450px" height="250px"><path d="M 36.267578 1.5058594 C 35.920578 1.5346094 35.540203 1.6871406 35.033203 1.9316406 C 34.577203 1.5576406 33.962578 1.4258438 33.392578 1.5898438 C 33.392578 1.5898438 32.311766 1.8937656 30.759766 2.3847656 C 29.866766 2.6657656 28.758109 2.8818594 28.037109 3.0058594 L 27.878906 2.8476562 C 27.326906 2.3016563 26.492688 2.1667656 25.804688 2.5097656 C 25.506688 1.9207656 24.889406 1.5566406 24.191406 1.5566406 C 23.638406 1.5566406 23.135734 1.7857812 22.802734 2.1757812 C 22.549734 2.0567813 22.197266 1.8967813 21.697266 1.6757812 C 21.202266 1.4547812 20.641156 1.4650781 20.160156 1.7050781 L 19.695312 1.9355469 C 19.328312 1.6305469 18.85275 1.4833437 18.34375 1.5273438 C 17.92975 1.5733438 17.552531 1.7561563 17.269531 2.0351562 C 16.962531 1.8741562 16.61 1.8009844 16.25 1.8339844 C 15.817 1.8749844 15.419 2.0711406 15.125 2.3691406 C 15.089 2.3631406 15.054531 2.3566094 15.019531 2.3496094 C 14.475531 2.2486094 13.933766 2.3996719 13.509766 2.7636719 C 13.059766 2.7746719 12.695187 2.8014375 12.367188 2.8984375 C 12.116188 2.9734375 11.93225 3.0519531 11.78125 3.1269531 L 11.269531 3.1269531 C 10.648531 3.1269531 10.079188 3.4388438 9.7421875 3.9648438 C 9.7421875 3.9648438 9.6307656 4.1390781 9.5097656 4.3300781 C 8.9997656 4.3430781 8.5195 4.569125 8.1875 4.953125 C 8.1875 4.953125 7.0407969 6.2712031 6.7167969 6.6582031 C 6.5167969 6.8992031 6.180625 7.3121406 6.015625 7.8691406 C 5.896625 7.9571406 5.7295 8.0691562 5.5625 8.1601562 C 4.9795 8.4751563 4.6171875 9.0821406 4.6171875 9.7441406 C 4.6171875 10.411141 4.4916094 11.305141 4.2246094 12.494141 C 4.2036094 12.589141 4.1799688 12.652687 4.1679688 12.679688 C 3.9059687 13.029687 3.7884531 13.453141 3.8144531 13.869141 C 3.1914531 14.279141 2.8707812 15.050922 3.0507812 15.794922 C 3.1187813 16.078922 3.2553125 16.3435 3.4453125 16.5625 L 3.3066406 16.769531 C 2.9666406 17.274531 2.903625 17.913563 3.140625 18.476562 L 3.5859375 19.525391 L 3.2675781 20.039062 C 2.9055781 20.625062 2.9104844 21.362453 3.2714844 21.939453 C 3.1014844 22.214453 3.005 22.532188 3 22.867188 C 2.994 23.263188 3.1148437 23.641172 3.3398438 23.951172 C 3.1988437 24.147172 3.0979219 24.371234 3.0449219 24.615234 C 2.9249219 25.152234 3.0534375 25.707766 3.3984375 26.134766 L 3.6425781 26.4375 C 3.2815781 26.7395 3.0518125 27.171297 3.0078125 27.654297 C 2.9648125 28.140297 3.115875 28.610656 3.421875 28.972656 C 3.169875 29.274656 3.0199063 29.656641 3.0039062 30.056641 C 2.9819063 30.622641 3.231875 31.172344 3.671875 31.527344 L 3.8925781 31.705078 C 3.8115781 31.967078 3.7909375 32.247391 3.8359375 32.525391 C 3.9239375 33.054391 4.2440781 33.519062 4.7050781 33.789062 C 4.5710781 34.205062 4.5914375 34.661219 4.7734375 35.074219 C 4.9554375 35.482219 5.2825937 35.804375 5.6835938 35.984375 L 5.5175781 36.476562 C 5.2975781 37.130563 5.464125 37.838219 5.953125 38.324219 C 6.439125 38.811219 7.1487813 38.977766 7.8007812 38.759766 L 8.7910156 38.433594 C 8.9160156 38.646594 9.0432969 38.848906 9.1542969 39.003906 C 9.2932969 39.197906 9.4444687 39.383641 9.6054688 39.556641 C 9.3974687 40.041641 9.4102031 40.597031 9.6582031 41.082031 C 9.9682031 41.688031 10.586531 42.064453 11.269531 42.064453 L 11.816406 42.064453 C 11.867406 42.323453 11.883766 42.572922 11.884766 42.669922 C 11.884766 43.602922 12.587766 44.367891 13.509766 44.462891 C 13.566766 45.014891 13.874422 45.508594 14.357422 45.808594 C 14.884422 46.134594 15.557234 46.166625 16.115234 45.890625 L 16.117188 45.888672 C 16.376188 46.404672 16.873406 46.766422 17.441406 46.857422 C 17.817406 46.918422 18.19725 46.858312 18.53125 46.695312 C 18.77125 47.170313 19.208094 47.515625 19.746094 47.640625 C 20.326094 47.768625 20.921469 47.612703 21.355469 47.220703 C 21.639469 47.477703 22.001484 47.638781 22.396484 47.675781 C 22.914484 47.725781 23.408297 47.55675 23.779297 47.21875 C 24.157297 47.56075 24.661625 47.732734 25.140625 47.677734 C 25.155625 47.676734 25.169594 47.675828 25.183594 47.673828 C 25.511594 48.170828 26.092172 48.488047 26.701172 48.498047 C 26.717172 48.498047 26.734 48.498047 26.75 48.498047 L 26.775391 48.498047 C 27.340391 48.483047 28.12925 48.217875 28.78125 47.671875 C 29.01025 47.705875 29.242797 47.693766 29.466797 47.634766 C 29.979797 47.507766 30.410484 47.156453 30.646484 46.689453 C 31.034484 46.885453 31.489063 46.940125 31.914062 46.828125 C 32.520063 46.672125 32.995594 46.224766 33.183594 45.634766 L 33.304688 45.257812 C 33.559688 45.297812 33.821172 45.281937 34.076172 45.210938 C 34.596172 45.063938 35.021234 44.696172 35.240234 44.201172 L 35.480469 43.652344 L 35.826172 43.646484 C 36.636172 43.633484 37.344875 43.079828 37.546875 42.298828 C 37.585875 42.147828 37.634547 41.999234 37.685547 41.865234 C 38.018547 41.948234 38.302734 42.016578 38.302734 42.017578 C 38.987734 42.185578 39.708531 41.938578 40.144531 41.392578 C 40.584531 40.843578 40.665609 40.082078 40.349609 39.455078 L 40.207031 39.173828 L 41.388672 39.564453 C 42.013672 39.776453 42.704406 39.627687 43.191406 39.179688 C 43.676406 38.731687 43.878797 38.056969 43.716797 37.417969 L 43.158203 35.197266 L 43.238281 35.119141 C 43.504281 34.856141 43.676188 34.526016 43.742188 34.166016 L 44.388672 33.845703 C 44.820672 33.630703 45.141922 33.259734 45.294922 32.802734 C 45.368922 32.582734 45.397766 32.355859 45.384766 32.130859 C 45.678766 31.937859 45.915641 31.658359 46.056641 31.318359 C 46.326641 30.672359 46.199375 29.938875 45.734375 29.421875 C 45.898375 29.239875 46.024516 29.024156 46.103516 28.785156 C 46.254516 28.332156 46.221766 27.847969 46.009766 27.417969 C 46.622766 27.107969 47.003906 26.491641 47.003906 25.806641 C 47.003906 25.439641 46.893266 25.093734 46.697266 24.802734 C 47.093266 24.212734 47.114266 23.420875 46.697266 22.796875 L 46.535156 22.554688 L 46.730469 22.238281 C 47.091469 21.650281 47.088562 20.917891 46.726562 20.337891 C 47.113563 19.724891 47.098344 18.929359 46.652344 18.318359 C 46.502344 18.113359 46.366344 17.886797 46.277344 17.716797 C 46.347344 17.608797 46.441969 17.480234 46.542969 17.365234 C 46.892969 16.971234 47.053469 16.446062 46.980469 15.914062 C 46.941469 15.643062 46.841359 15.388016 46.693359 15.166016 C 47.127359 14.526016 47.111516 13.66125 46.603516 13.03125 L 45.960938 12.234375 C 46.159937 11.881375 46.235969 11.465594 46.167969 11.058594 C 46.085969 10.562594 45.797812 10.125609 45.382812 9.8496094 C 45.409813 9.3756094 45.247531 8.8906719 44.894531 8.5136719 C 44.193531 7.7696719 43.599625 7.0625938 43.515625 6.9335938 C 43.092625 6.1155938 42.488969 5.6995156 42.167969 5.4785156 C 42.046969 5.3865156 42.029422 5.3529062 41.982422 5.2539062 C 41.913422 5.1089063 41.796516 4.8657344 41.603516 4.6777344 C 40.487516 3.4867344 38.507937 3.4268437 38.210938 3.4648438 C 38.210938 3.4638438 38.155281 3.4020937 38.113281 3.2460938 C 38.088281 2.6710937 37.787734 2.1344062 37.302734 1.8164062 C 36.928734 1.5709063 36.614578 1.4771094 36.267578 1.5058594 z M 18.259766 9.5 C 18.422766 9.5 18.576922 9.5798438 18.669922 9.7148438 L 19.580078 11.023438 L 20.203125 9.7753906 C 20.287125 9.6063906 20.460391 9.5 20.650391 9.5 C 20.839391 9.5 21.012656 9.6063906 21.097656 9.7753906 L 21.585938 10.75 L 22.689453 9.6464844 C 22.786453 9.5494844 22.914969 9.5 23.042969 9.5 C 23.170969 9.5 23.298484 9.5494844 23.396484 9.6464844 L 23.839844 10.089844 L 24.283203 9.6464844 C 24.381203 9.5494844 24.508719 9.5 24.636719 9.5 C 24.764719 9.5 24.893234 9.5494844 24.990234 9.6464844 L 25.433594 10.089844 L 25.878906 9.6464844 C 25.973906 9.5524844 26.100422 9.5 26.232422 9.5 C 26.259422 9.5 26.2855 9.5018594 26.3125 9.5058594 C 26.4715 9.5318594 26.607687 9.6313906 26.679688 9.7753906 L 27.029297 10.476562 L 27.380859 9.7753906 C 27.465859 9.6053906 27.637172 9.5 27.826172 9.5 L 27.845703 9.5 C 28.041703 9.507 28.214063 9.6275938 28.289062 9.8085938 L 28.634766 10.648438 L 28.953125 9.8203125 C 29.014125 9.6623125 29.150406 9.5467187 29.316406 9.5117188 C 29.350406 9.5047188 29.386875 9.5 29.421875 9.5 C 29.552875 9.5 29.680391 9.5524844 29.775391 9.6464844 L 31.222656 11.09375 L 31.8125 11.09375 C 32.8805 11.09375 34.081844 12.040219 35.589844 14.074219 C 35.718844 14.249219 35.849719 14.269781 36.136719 14.300781 C 36.397719 14.328781 36.755437 14.367062 37.023438 14.664062 C 37.202438 14.862063 37.194859 15.165516 37.005859 15.353516 L 35.005859 17.353516 C 34.909859 17.449516 34.782344 17.498047 34.652344 17.498047 C 34.589344 17.498047 34.525844 17.486891 34.464844 17.462891 C 34.278844 17.387891 34.156344 17.210766 34.152344 17.009766 L 34.136719 16.294922 C 34.131719 16.024922 33.907672 15.804688 33.638672 15.804688 C 33.598672 15.804688 33.558578 15.808359 33.517578 15.818359 C 33.498578 15.823359 33.479938 15.827078 33.460938 15.830078 L 27.150391 16.638672 L 27.150391 17.496094 C 27.150391 17.772094 26.926391 17.996094 26.650391 17.996094 L 22.650391 17.996094 C 22.374391 17.996094 22.150391 17.772094 22.150391 17.496094 L 22.150391 16.636719 L 15.828125 15.804688 C 15.809125 15.802687 15.789484 15.799922 15.771484 15.794922 C 15.730484 15.784922 15.689438 15.779297 15.648438 15.779297 C 15.373437 15.779297 15.150391 16.003297 15.150391 16.279297 L 15.150391 17 C 15.150391 17.202 15.028797 17.385891 14.841797 17.462891 C 14.779797 17.488891 14.714391 17.5 14.650391 17.5 C 14.520391 17.5 14.392875 17.449516 14.296875 17.353516 L 12.298828 15.351562 C 12.126828 15.179562 12.102188 14.909937 12.242188 14.710938 C 12.508188 14.332937 12.695953 13.964375 12.876953 13.609375 C 13.306953 12.764375 13.752312 11.890625 15.070312 11.890625 C 15.252313 11.890625 15.326672 11.825672 15.513672 11.638672 C 15.730672 11.421672 16.058062 11.09375 16.664062 11.09375 C 16.941063 11.09375 17.497547 10.397391 17.810547 9.7753906 C 17.889547 9.6173906 18.046656 9.5139531 18.222656 9.5019531 C 18.235656 9.5009531 18.247766 9.5 18.259766 9.5 z M 37.634766 16.871094 C 37.702766 16.871094 37.770938 16.885062 37.835938 16.914062 C 38.013937 16.993063 38.131766 17.168281 38.134766 17.363281 L 38.160156 18.990234 C 38.162156 19.133234 38.103047 19.271187 37.998047 19.367188 L 37.359375 19.953125 L 37.962891 20.408203 C 38.077891 20.494203 38.149156 20.624578 38.160156 20.767578 C 38.171156 20.910578 38.121484 21.051297 38.021484 21.154297 L 37.699219 21.488281 L 38.679688 21.996094 C 38.819688 22.069094 38.917359 22.203375 38.943359 22.359375 C 38.969359 22.515375 38.920547 22.674109 38.810547 22.787109 L 38.357422 23.255859 L 38.806641 23.726562 C 38.916641 23.840563 38.966406 23.998297 38.941406 24.154297 C 38.915406 24.310297 38.818734 24.444578 38.677734 24.517578 L 37.695312 25.023438 L 38.017578 25.357422 C 38.127578 25.471422 38.177344 25.629156 38.152344 25.785156 C 38.126344 25.941156 38.029672 26.076437 37.888672 26.148438 L 37.169922 26.519531 L 37.888672 26.892578 C 38.028672 26.965578 38.126344 27.099859 38.152344 27.255859 C 38.178344 27.411859 38.127578 27.570594 38.017578 27.683594 L 37.472656 28.248047 L 38.109375 29.566406 C 38.220375 29.796406 38.138875 30.075937 37.921875 30.210938 C 37.907875 30.219938 36.510969 31.109078 35.792969 33.330078 C 35.759969 33.431078 35.695375 33.520031 35.609375 33.582031 L 29.818359 37.769531 C 29.730359 37.833531 29.627391 37.865234 29.525391 37.865234 C 29.393391 37.865234 29.264016 37.813891 29.166016 37.712891 L 28.736328 37.267578 L 28.308594 37.712891 C 28.214594 37.809891 28.083266 37.865234 27.947266 37.865234 C 27.812266 37.865234 27.683844 37.810891 27.589844 37.712891 L 27.380859 37.496094 L 26.847656 39.150391 C 26.793656 39.317391 26.655375 39.444375 26.484375 39.484375 C 26.446375 39.493375 26.408094 39.498047 26.371094 39.498047 C 26.237094 39.498047 26.106719 39.444703 26.011719 39.345703 L 25.582031 38.900391 L 25.154297 39.345703 C 25.059297 39.443703 24.928922 39.498047 24.794922 39.498047 C 24.768922 39.498047 24.742797 39.496188 24.716797 39.492188 C 24.555797 39.466187 24.416703 39.363797 24.345703 39.216797 L 23.867188 38.226562 L 23.578125 38.527344 C 23.483125 38.625344 23.35275 38.679688 23.21875 38.679688 C 23.20275 38.679688 23.185922 38.678734 23.169922 38.677734 C 23.017922 38.662734 22.880828 38.578219 22.798828 38.449219 L 22.181641 37.492188 L 22.025391 37.681641 C 21.929391 37.796641 21.788625 37.863281 21.640625 37.863281 C 21.620625 37.863281 21.600078 37.862375 21.580078 37.859375 C 21.411078 37.838375 21.265406 37.733078 21.191406 37.580078 L 20.714844 36.59375 L 20.423828 36.894531 C 20.327828 36.993531 20.1955 37.046875 20.0625 37.046875 C 20.0015 37.046875 19.941812 37.036672 19.882812 37.013672 C 19.693812 36.940672 15.237828 35.175812 13.298828 32.007812 C 12.488828 30.684812 11.557437 30.402578 11.523438 30.392578 C 11.352438 30.346578 11.219875 30.214922 11.171875 30.044922 C 11.124875 29.873922 11.169969 29.6895 11.292969 29.5625 L 12.404297 28.414062 L 11.423828 27.90625 C 11.257828 27.82025 11.152344 27.649891 11.152344 27.462891 C 11.152344 27.275891 11.257828 27.105531 11.423828 27.019531 L 12.142578 26.646484 L 11.423828 26.275391 C 11.283828 26.202391 11.184203 26.068109 11.158203 25.912109 C 11.132203 25.756109 11.182969 25.597375 11.292969 25.484375 L 11.746094 25.015625 L 11.292969 24.548828 C 11.105969 24.354828 11.105969 24.047516 11.292969 23.853516 L 11.746094 23.384766 L 11.292969 22.917969 C 11.182969 22.803969 11.133203 22.644281 11.158203 22.488281 C 11.183203 22.332281 11.282828 22.198953 11.423828 22.126953 L 12.142578 21.753906 L 11.423828 21.382812 C 11.257828 21.296813 11.152344 21.1245 11.152344 20.9375 C 11.152344 20.7505 11.257828 20.580141 11.423828 20.494141 L 12.28125 20.050781 L 11.259766 19.306641 C 11.092766 19.184641 11.017313 18.973437 11.070312 18.773438 L 11.447266 17.371094 C 11.492266 17.202094 11.624016 17.069484 11.791016 17.021484 C 11.837016 17.008484 11.883687 17.001953 11.929688 17.001953 C 12.053688 17.001953 12.174578 17.048766 12.267578 17.134766 L 14.988281 19.632812 C 15.091281 19.725812 15.150391 19.86 15.150391 20 L 15.150391 20.867188 C 15.150391 21.143187 15.374438 21.367188 15.648438 21.367188 C 15.669438 21.367188 15.690047 21.365375 15.748047 21.359375 L 22.150391 21.029297 L 22.150391 20.503906 C 22.150391 20.227906 22.374391 20.003906 22.650391 20.003906 L 26.650391 20.003906 C 26.926391 20.003906 27.150391 20.227906 27.150391 20.503906 L 27.150391 21.029297 L 33.587891 21.363281 C 33.608891 21.366281 33.631344 21.367188 33.652344 21.367188 C 33.784344 21.367188 33.908906 21.314703 34.003906 21.220703 C 34.098906 21.126703 34.151391 21.000234 34.150391 20.865234 L 34.150391 19.998047 C 34.150391 19.854047 34.212312 19.718047 34.320312 19.623047 L 37.302734 16.996094 C 37.395734 16.914094 37.514766 16.871094 37.634766 16.871094 z M 24.650391 25 C 22.462391 25 20.640484 25.758797 19.896484 26.341797 C 19.535484 26.624797 19.581187 27.181719 19.992188 27.386719 L 23.351562 28.869141 C 23.532563 28.949141 23.650391 29.128172 23.650391 29.326172 L 23.650391 30.763672 C 23.650391 30.917672 23.579984 31.06125 23.458984 31.15625 L 20.78125 33.259766 C 20.46425 33.576766 20.764219 34.109 21.199219 34 L 24.650391 33 L 28.099609 33.990234 C 28.534609 34.099234 28.836531 33.565047 28.519531 33.248047 L 25.841797 31.15625 C 25.720797 31.06125 25.650391 30.915719 25.650391 30.761719 L 25.650391 29.326172 C 25.650391 29.128172 25.766266 28.947187 25.947266 28.867188 L 29.308594 27.386719 C 29.718594 27.181719 29.765297 26.624797 29.404297 26.341797 C 28.660297 25.759797 26.838391 25 24.650391 25 z M 20.150391 29 A 0.5 0.5 0 0 0 20.150391 30 A 0.5 0.5 0 0 0 20.150391 29 z M 29.150391 29 A 0.5 0.5 0 0 0 29.150391 30 A 0.5 0.5 0 0 0 29.150391 29 z M 18.150391 30 A 0.5 0.5 0 0 0 18.150391 31 A 0.5 0.5 0 0 0 18.150391 30 z M 31.150391 30 A 0.5 0.5 0 0 0 31.150391 31 A 0.5 0.5 0 0 0 31.150391 30 z M 19.150391 32 A 0.5 0.5 0 0 0 19.150391 33 A 0.5 0.5 0 0 0 19.150391 32 z M 30.162109 32 A 0.5 0.5 0 0 0 30.162109 33 A 0.5 0.5 0 0 0 30.162109 32 z M 22.230469 36.650391 L 21.638672 37.365234 L 22.230469 36.650391 z M 25.582031 38.183594 L 24.794922 39 L 25.582031 38.183594 z"/></svg>